<?xml version="1.0" standalone="no"?>
<!DOCTYPE svg PUBLIC "-//W3C//DTD SVG 20010904//EN"
 "http://www.w3.org/TR/2001/REC-SVG-20010904/DTD/svg10.dtd">
<svg version="1.0" xmlns="http://www.w3.org/2000/svg"
 width="997.000000pt" height="425.000000pt" viewBox="0 0 997.000000 425.000000"
 preserveAspectRatio="xMidYMid meet">

<g transform="translate(0.000000,425.000000) scale(0.100000,-0.100000)"
fill="#ffffff" stroke="none">
<path d="M1839 3438 c-12 -24 -65 -126 -118 -228 -53 -102 -130 -250 -171
-330 l-75 -145 -523 -3 -522 -2 0 -129 c0 -108 3 -130 16 -135 9 -3 284 -6
612 -6 l597 0 69 133 c38 72 100 189 138 259 37 70 68 131 68 136 0 5 42 86
94 182 l95 174 -119 68 c-66 37 -124 68 -130 68 -5 0 -19 -19 -31 -42z"/>
<path d="M2247 3157 c-22 -39 -129 -251 -239 -469 l-200 -398 -534 0 -534 0 0
-140 0 -140 535 0 535 0 132 -267 c107 -219 333 -658 344 -671 4 -6 234 130
234 139 0 4 -62 130 -139 281 -76 150 -182 360 -235 465 l-97 193 97 192 c53
106 159 316 235 466 77 151 139 277 139 281 0 7 -222 141 -232 141 -2 0 -20
-33 -41 -73z"/>
<path d="M2702 3023 c-6 -10 -34 -65 -65 -123 -30 -58 -125 -250 -211 -428
l-156 -322 159 -328 c87 -180 185 -379 219 -442 l60 -115 192 -3 193 -2 -17
25 c-9 14 -68 123 -130 242 -63 120 -143 272 -180 338 l-66 120 198 5 197 5 0
155 0 155 -197 5 -198 5 66 120 c37 66 117 218 180 338 62 119 121 228 130
242 l16 25 -190 0 c-172 0 -192 -2 -200 -17z"/>
<path d="M3290 2500 l0 -230 60 0 60 0 0 85 0 85 95 0 95 0 0 45 0 45 -95 0
-95 0 0 60 0 60 180 0 180 0 0 40 0 40 -240 0 -240 0 0 -230z"/>
<path d="M4023 2638 c-16 -20 -213 -356 -213 -363 0 -3 21 -5 48 -3 43 3 49 6
67 40 l20 38 125 0 125 0 20 -38 c19 -35 22 -37 78 -40 l58 -3 -115 188 -114
188 -45 3 c-27 2 -48 -2 -54 -10z m89 -140 l36 -63 -70 -3 c-39 -2 -72 -1 -75
2 -6 6 56 126 65 126 4 0 24 -28 44 -62z"/>
<path d="M4445 2625 c-24 -23 -25 -29 -25 -160 0 -131 7 -169 34 -187 6 -4 90
-8 187 -8 207 0 210 1 217 82 l4 55 -32 7 c-63 12 -70 9 -70 -29 l0 -35 -120
0 -120 0 0 110 0 110 120 0 120 0 0 -30 c0 -27 3 -30 34 -30 56 0 66 8 66 52
0 28 -7 46 -25 63 -24 25 -27 25 -195 25 -168 0 -171 0 -195 -25z"/>
<path d="M5002 2474 c3 -160 5 -177 22 -190 15 -11 61 -14 203 -14 240 0 223
-16 223 210 l0 170 -50 0 -50 0 0 -155 0 -155 -125 0 -125 0 0 155 0 155 -51
0 -50 0 3 -176z"/>
<path d="M5610 2460 l0 -190 200 0 200 0 0 35 0 35 -150 0 -150 0 0 155 0 155
-50 0 -50 0 0 -190z"/>
<path d="M6100 2459 l0 -191 178 4 c172 3 178 4 223 30 97 57 115 195 38 283
-46 52 -103 65 -286 65 l-153 0 0 -191z m343 96 c36 -23 51 -81 35 -130 -21
-62 -48 -75 -171 -82 l-107 -6 0 123 0 123 108 -5 c80 -4 116 -10 135 -23z"/>
<path d="M6883 2638 c-16 -20 -213 -356 -213 -363 0 -3 21 -5 48 -3 43 3 49 6
67 40 l20 38 125 0 125 0 20 -38 c19 -35 22 -37 78 -40 l58 -3 -115 188 -114
188 -45 3 c-27 2 -48 -2 -54 -10z m89 -140 l36 -63 -70 -3 c-39 -2 -72 -1 -75
2 -6 6 56 126 65 126 4 0 24 -28 44 -62z"/>
<path d="M7290 2459 l0 -191 178 4 c172 3 178 4 223 30 97 57 115 195 38 283
-46 52 -103 65 -286 65 l-153 0 0 -191z m343 96 c36 -23 51 -81 35 -130 -21
-62 -48 -75 -171 -82 l-107 -6 0 123 0 123 108 -5 c80 -4 116 -10 135 -23z"/>
<path d="M7910 2460 l0 -190 210 0 210 0 0 35 0 35 -160 0 -160 0 0 45 0 45
90 0 90 0 0 35 0 35 -90 0 -90 0 0 40 0 40 155 0 155 0 0 35 0 35 -205 0 -205
0 0 -190z"/>
<path d="M8820 2459 l0 -191 178 4 c172 3 178 4 223 30 97 57 115 195 38 283
-46 52 -103 65 -286 65 l-153 0 0 -191z m343 96 c36 -23 51 -81 35 -130 -21
-62 -48 -75 -171 -82 l-107 -6 0 123 0 123 108 -5 c80 -4 116 -10 135 -23z"/>
<path d="M9440 2460 l0 -190 210 0 210 0 0 35 0 35 -160 0 -160 0 0 45 0 45
90 0 90 0 0 35 0 35 -90 0 -90 0 0 40 0 40 155 0 155 0 0 35 0 35 -205 0 -205
0 0 -190z"/>
<path d="M443 1833 c-10 -3 -13 -40 -13 -134 l0 -129 523 -2 522 -3 80 -155
c45 -85 131 -252 192 -370 61 -118 116 -216 121 -218 6 -2 64 28 131 66 l120
68 -95 174 c-52 96 -94 177 -94 182 0 5 -31 66 -68 136 -38 70 -100 187 -138
259 l-69 133 -600 -1 c-330 0 -606 -3 -612 -6z"/>
<path d="M3790 1570 l0 -230 245 0 245 0 0 45 0 45 -185 0 -185 0 0 55 0 55
105 0 105 0 0 40 0 40 -105 0 -105 0 0 50 0 50 180 0 180 0 0 40 0 40 -240 0
-240 0 0 -230z"/>
<path d="M4430 1530 l0 -190 45 0 45 0 0 120 c0 66 2 120 5 120 3 0 73 -54
155 -120 128 -103 154 -120 185 -120 l35 0 0 190 0 190 -45 0 -44 0 -3 -120
-3 -120 -154 120 c-127 99 -159 120 -187 120 l-34 0 0 -190z"/>
<path d="M5075 1695 c-24 -23 -25 -29 -25 -160 0 -131 7 -169 34 -187 6 -4 97
-8 202 -8 243 0 237 -3 242 129 l4 91 -126 0 -126 0 0 -35 0 -35 75 0 75 0 0
-35 0 -35 -140 0 -140 0 0 110 0 110 140 0 c130 0 140 -1 140 -19 0 -17 5 -18
47 -10 25 5 48 11 50 13 2 2 0 19 -5 37 -13 53 -35 59 -240 59 -181 0 -183 0
-207 -25z"/>
<path d="M5680 1530 l0 -190 210 0 210 0 0 35 0 35 -160 0 -160 0 0 45 0 45
90 0 90 0 0 35 0 35 -90 0 -90 0 0 40 0 40 155 0 155 0 0 35 0 35 -205 0 -205
0 0 -190z"/>
<path d="M6220 1530 l0 -190 45 0 45 0 0 120 c0 66 2 120 5 120 3 0 73 -54
155 -120 128 -103 154 -120 185 -120 l35 0 0 190 0 190 -45 0 -44 0 -3 -120
-3 -120 -154 120 c-127 99 -159 120 -187 120 l-34 0 0 -190z"/>
<path d="M6850 1530 l0 -190 50 0 50 0 0 75 0 75 140 0 140 0 0 -75 0 -75 50
0 50 0 0 190 0 190 -50 0 -50 0 0 -70 0 -70 -140 0 -140 0 0 70 0 70 -50 0
-50 0 0 -190z"/>
<path d="M7653 1708 c-16 -20 -213 -356 -213 -363 0 -3 21 -5 48 -3 43 3 49 6
67 40 l20 38 125 0 125 0 20 -38 c19 -35 22 -37 78 -40 l58 -3 -115 188 -114
188 -45 3 c-27 2 -48 -2 -54 -10z m89 -140 l36 -63 -70 -3 c-39 -2 -72 -1 -75
2 -6 6 56 126 65 126 4 0 24 -28 44 -62z"/>
<path d="M8060 1530 l0 -190 50 0 50 0 0 70 0 70 39 0 c33 0 48 -9 117 -70
l78 -70 70 0 c39 0 66 4 60 8 -5 5 -42 35 -83 68 l-75 59 46 5 c71 9 78 19 78
114 0 44 -4 86 -8 92 -19 29 -56 34 -236 34 l-186 0 0 -190z m335 70 l0 -45
-117 -3 -118 -3 0 51 0 51 118 -3 117 -3 0 -45z"/>
<path d="M8640 1530 l0 -190 50 0 50 0 0 190 0 190 -50 0 -50 0 0 -190z"/>
<path d="M9063 1708 c-16 -20 -213 -356 -213 -363 0 -3 21 -5 48 -3 43 3 49 6
67 40 l20 38 125 0 125 0 20 -38 c19 -35 22 -37 78 -40 l58 -3 -115 188 -114
188 -45 3 c-27 2 -48 -2 -54 -10z m89 -140 l36 -63 -70 -3 c-39 -2 -72 -1 -75
2 -6 6 56 126 65 126 4 0 24 -28 44 -62z"/>
</g>
</svg>
