<?xml version="1.0" encoding="utf-8"?>
<!-- Generator: Adobe Illustrator 27.5.0, SVG Export Plug-In . SVG Version: 6.00 Build 0)  -->
<svg version="1.1" id="Layer_1" xmlns="http://www.w3.org/2000/svg" xmlns:xlink="http://www.w3.org/1999/xlink" x="0px" y="0px"
	 viewBox="0 0 392.1 424.8" style="enable-background:new 0 0 392.1 424.8;" xml:space="preserve">
<style type="text/css">
	.st0{fill:none;}
	.st1{fill:#FFFFFF;}
</style>
<g>
	<rect x="0" y="0" class="st0" width="392.1" height="424.9"/>
	<g>
		<path class="st1" d="M254.6,111.7c0.1,1,0.2,16-21.7,14.7c-0.9,0-1.9-0.4-2.7-0.3c40.3-27.1-2.9-35.8-6.8-48.1
			c-0.4,5.3,1.7,6.9,3.7,11.7c1.9,4.6,1.5,6.7,1.5,6.7s-21.5-14.9-18.1-28.8c0.2-0.8-8.1,5.8-6.3,17.5c1.4,9.3,2.1,24.3-22.3,27.6
			c-13.3,1.8-49.4,9.6-47.2,28.5c2.2,19,39.5,16.6,39.5,16.6c10.3,0,5.8-8.6-0.2-11.5c-10.5-4.8-10.5-16.4,15.9-21.5
			c-13.1,8.2-11.2,12.6-1.3,17.9c11.2,5.8,1.1,15.1,6,15.1c3.8,0.2,10.4,0.2,13.9,0.2c6.1-0.1-22.8-13.7,7.1-31.1
			c-14.1,20.3,4.2,29.5,7,29.6c2.8,0.1-9.6-11.8,14.9-17.1C263,133.9,254.6,111.7,254.6,111.7L254.6,111.7z M194.9,80.2L194.9,80.2
			c5,12.3-3.1,21.5-11.4,23.9c-7.4,2.2-15.8,2.7-21.2,4.6c-5.6,2-11.5,7.4-11.5,7.4s-0.5-5.7,6.2-12.8c8-7.4,15.1-6.5,21.6-13.5
			c5.8-6.3,0.8-11.2,1.3-18.4c0.4-5.4,2.4-9.5,6.4-12.7C184.6,66.5,190.7,70.1,194.9,80.2L194.9,80.2z M154.9,63.4L154.9,63.4
			c11.8-2.3,27.1,19.4,8.6,27c-17.2,7.1-17.8,22.6-17.8,22.6s-9.1-16,12-29.1C168.1,77.4,160.7,67.4,154.9,63.4z"/>
		<path class="st1" d="M248,181.6c-0.1-4.5-7.9-6.2-10-6.8h-43.9c-2.3,0,1.2,6.8,2.8,6.8C198.6,181.6,248,181.6,248,181.6L248,181.6
			z M168.2,172.6L168.2,172.6l68.2,0c-1.1-4.2-4.5-4.8-4.5-4.8l-38.1,0c-1.8,0-1.7,1.6-1.6,2.9h-22.9
			C168,170.7,168.2,172.6,168.2,172.6L168.2,172.6z M176,166L176,166l53.8,0c-0.8-3.9-2.4-4.4-2.4-4.4h-34.1c-1,0-1.9,0.5-1.6,2.7
			c-6.4,0-12.9,0-14.8,0C175.9,164.4,176,166,176,166L176,166z M166.4,162.2L166.4,162.2c0,0-1.6-0.1-2.7,3.7c-1.3,1.5-4.3-1.9-8,6
			c-11.3,1.3-12.6,8.6-10.9,9.4c0.6,0.2,0.6,0.1,0.6,0.1c0.5-4.6,9-7.6,11.5-8.2c3-8.2,6.3-5.1,7.4-6.7
			C165,162.6,166.4,162.2,166.4,162.2L166.4,162.2z M149,188.3L149,188.3c1.5,1.3,1.1,0.8,2.5,2.3c4.8,5.5,1.5,16.4,19.6,22.1
			c0,0,0.4,3,1.9,3c1.5,0,44.3,0,46.1,0c1.8,0,2.3-3,2.3-3c18.1-5.7,14.8-16.6,19.6-22.1c1.4-1.4,1.1-1,2.5-2.3
			c2.9-2.5,5-4.8,3.5-4.8c-1.5,0-101.3,0-101.3,0C143.3,183.5,146.1,185.9,149,188.3L149,188.3z M155.5,185.4L155.5,185.4l44.6,0.1
			c0,0,9.6,1.6,12.5,8.8c3.2,9.7-9.2,12.8-20.3,15.1c-6.1,1.3-11.4,3.5-14.3,3.5c-2.2,0-3.7-3-3.7-3c-15.9-5-16.2-13-17.8-17.9
			C154.8,187.2,151.1,185.4,155.5,185.4L155.5,185.4z M173.9,219L173.9,219c0,0.7,0.4,1.3,0.8,1.3h42.8c0.5,0,0.8-0.6,0.8-1.3
			c0-0.7-0.4-1.3-0.8-1.3h-42.8C174.2,217.7,173.9,218.3,173.9,219L173.9,219z M185.7,263.7L185.7,263.7c-1.6,0-2.1,0-3.7,0
			l4.4,40.1c1.2,0.4,1,0.4,2.4,0.8L185.7,263.7L185.7,263.7z M188.8,263.7L188.8,263.7c1.5,0,3.6,0,5.7,0l0.5,41.8
			c-2.1-0.1-3.9-0.4-4.7-0.5L188.8,263.7L188.8,263.7z M196,347.2L196,347.2c-3.7,0-4.8-0.7-4.8-0.7l1.9,17c0,0,0.4,2.7,3,2.7
			c2.6,0,3-2.7,3-2.7l1.8-17C201,346.5,199.7,347.2,196,347.2L196,347.2z M197.1,305.5L197.1,305.5c2.1-0.1,3.9-0.3,4.7-0.5
			l1.5-41.3c-1.5,0-3.6,0-5.7,0l-0.5,41.6L197.1,305.5L197.1,305.5z M206.5,263.7L206.5,263.7l-3,40.9c1.2-0.3,1.2-0.3,2.3-0.7
			l4.3-40.1C208.6,263.7,208.1,263.7,206.5,263.7z"/>
		<g>
			<path class="st1" d="M283.4,105.7c-2.4-1.7-4.7-0.9-6.9,1.3c-2.8,2.9-3,5.8-0.9,8l5.8,5.9l16.7-16.8l-3.1-3.2l-6.9,7l-0.8-0.8
				c-2.4-2.5-0.6-4,1.4-6c1.1-1.1,2.3-2.1,2.9-3.6l-3.1-3.2c-0.4,1-3.5,4.2-4.5,5.3C281,102.6,282.8,104.9,283.4,105.7L283.4,105.7z
				 M284.1,109l1.4,1.4l-4.6,4.7l-1.4-1.4c-1-1-1-2.2,0.6-3.9C281.1,108.8,282.9,107.8,284.1,109z"/>
			<path class="st1" d="M112.3,276.1l-5-5.6L90,286.6l4.9,5.5c5.1,5.7,10.9-0.3,13.6-2.8C113.9,284.3,116.3,280.5,112.3,276.1z
				 M105.3,286c-4.3,4-6.4,5.2-8.2,3.1l-1.5-1.6l12-11.1l1.6,1.7C111.3,280.4,108.5,283,105.3,286z"/>
			<polygon class="st1" points="87.3,256.5 92.4,253.7 95.8,260.2 99,258.4 93.4,248 72.8,259.4 78.5,270 81.6,268.3 78.1,261.6 
				84.1,258.3 87.3,264.2 90.5,262.5 			"/>
			<path class="st1" d="M124.6,287.3c-5.7-4.7-9.4,0-13.3,4.8c-3.9,4.8-7.6,9.6-1.9,14.3c5.7,4.7,9.5,0,13.4-4.8
				C126.6,296.7,130.3,292,124.6,287.3z M119.2,298.7c-3.8,4.7-5.7,6.6-7.6,5c-1.9-1.6-0.6-3.9,3.2-8.6c3.8-4.7,5.7-6.6,7.6-5
				C124.4,291.7,123,294,119.2,298.7z"/>
			<path class="st1" d="M264.6,105.8c5.9,4.5,9.4-0.3,13.2-5.3c3.7-5,7.3-9.8,1.5-14.3c-5.9-4.5-9.5,0.3-13.2,5.3
				C262.3,96.5,258.7,101.3,264.6,105.8z M269.6,94.2c3.6-4.9,5.5-6.8,7.5-5.2c2,1.5,0.7,3.9-2.9,8.7c-3.6,4.9-5.5,6.8-7.5,5.2
				C264.7,101.4,266,99.1,269.6,94.2z"/>
			<polygon class="st1" points="182.6,312.9 168.4,310.3 167.7,314.2 172.6,315.1 169.1,334.7 173.5,335.5 177,315.9 181.9,316.8 
							"/>
			<polygon class="st1" points="73.9,142.7 80.2,145.5 77.5,151.7 80.9,153.1 83.5,146.9 88.8,149.3 85.9,156 89.2,157.4 
				93.9,146.6 72.4,137.1 67.6,148.2 70.9,149.6 			"/>
			<path class="st1" d="M161.9,307.8c-5.2-1.7-7.6,0.6-8.7,4.2c-2.1,6.8,6.3,9.8,5.1,13.9c-0.5,1.6-1.5,2.4-3,1.9
				c-2.3-0.8-1.8-2.6-1.2-4.8l-4.3-1.4c-1.5,3.9-1.6,7.6,3.7,9.3c3.2,1.1,7.3,1.6,9.2-4.3c2.2-7.1-6.4-9.6-5.1-13.9
				c0.5-1.6,1.6-2.1,3-1.7c1.7,0.6,1.4,2.4,0.9,4.1l4.1,1.3C167.4,311.9,166,309.1,161.9,307.8z"/>
			<polygon class="st1" points="96.5,141.7 83.7,129.6 83.8,129.5 100.1,135.5 102.5,131.5 79.6,123.8 77,128.4 94.2,145.6 			"/>
			<polygon class="st1" points="145.3,305.4 151.8,308.5 153.3,305.2 142.8,300.2 132.8,321.8 143.5,326.9 145.1,323.6 138.4,320.4 
				141.3,314.1 147.3,316.9 148.8,313.6 142.8,310.8 			"/>
			<path class="st1" d="M81.4,249.9c6.8-2.6,10.5-5.2,8.4-10.8l-2.6-7.1l-21.9,8.4l2.6,6.9C70.5,254.6,78,251.2,81.4,249.9z
				 M70.9,245.5l-0.8-2.1l15.2-5.9l0.8,2.2c1.1,3-2.5,4.3-6.5,5.9C74.2,247.7,71.9,248,70.9,245.5z"/>
			<path class="st1" d="M193.9,244.4h-4.6c-0.1,1.6-0.2,2.9-0.5,4c-0.3,1-0.6,1.9-1,2.7c-0.4,0.6-1,1-1.7,1.3
				c-0.7,0.3-2.1,0.4-4,0.4h-5v-9.6h1.1c1.3,0,2.2,0.3,2.7,1c0.5,0.6,0.7,2,0.8,4.2h3.5v-14h-3.5v0.3c0,1.7-0.3,2.9-0.8,3.6
				c-0.5,0.7-1.4,1-2.7,1h-1.1v-8.4h3.6h0.9c1.7,0,2.9,0.1,3.7,0.4c0.8,0.2,1.4,0.7,1.9,1.2c0.5,0.5,0.9,1.2,1.2,2
				c0.3,0.8,0.6,2,0.9,3.5h4.5v-11.5h-29.6v4.3h1.4c1,0,1.6,0.1,1.9,0.4c0.3,0.3,0.4,1,0.4,2.2v16.8v0.2c0,1.1-0.2,1.8-0.4,2.1
				c-0.3,0.2-0.9,0.4-1.8,0.4h-1.4v4.4h29.7V244.4z"/>
			<path class="st1" d="M69,167.6c4.1,1.2,5.1-1.6,5.5-2.5l0.1,0c-0.3,3,1.6,4.6,4.4,5.5c3.8,1.1,6.4-0.2,7.3-3.2l2.3-8.1L66,152.8
				l-1.2,4.4l9.3,2.7l-0.3,1.1c-0.9,3.4-3.2,2.5-5.9,1.7c-1.5-0.4-3-1-4.5-0.8l-1.2,4.3C63.3,166,67.5,167.2,69,167.6z M77,162.9
				l0.5-1.9l6.3,1.8l-0.5,1.9c-0.4,1.4-1.4,2-3.6,1.4C78.2,165.6,76.5,164.6,77,162.9z"/>
			<path class="st1" d="M65.6,185.5c7.3,1.1,8.2-8,12.6-7.4c1.6,0.2,2.4,1.2,2.1,2.7c-0.3,1.8-2.1,1.8-3.8,1.6l-0.6,4.4
				c4.8,1,7.2-0.8,7.9-5.2c0.8-5.5-1.9-7.5-5.5-8c-6.9-1-8.5,8-12.6,7.4c-1.6-0.2-2.5-1.1-2.3-2.7c0.3-2.5,2.2-2.3,4.4-2l0.6-4.5
				c-4-0.8-7.7-0.3-8.5,5.2C59.5,180.4,59.6,184.6,65.6,185.5z"/>
			<polygon class="st1" points="106.1,126.9 87.3,112.7 84.6,116.3 103.4,130.6 			"/>
			
				<rect x="68.4" y="180.4" transform="matrix(4.343853e-02 -0.9991 0.9991 4.343853e-02 -124.347 254.4791)" class="st1" width="4.5" height="23.5"/>
			<path class="st1" d="M120.5,111l3.5-2.8l-10-13.1c-1.6-2.1-1.8-3.8-0.2-5c1.3-1,2.9-0.8,4.6,1.5l10,13.1l3.5-2.8l-10.2-13.3
				c-2.7-3.5-6.3-4.3-10.2-1.2c-4.3,3.4-3.4,7.5-1.3,10.3L120.5,111z"/>
			<path class="st1" d="M84.3,219.4l-24.2-0.9l0.9,4.4l5.3,0.1l1.3,6.1l-4.8,2.3l1,4.7l21.7-10.8L84.3,219.4z M71,227.4l-0.9-4.2
				l10.3-0.1l0,0.1L71,227.4z"/>
			<polygon class="st1" points="110.6,121.4 98.7,110.1 98.8,110 114.5,117.1 118.6,112.7 101.5,96.3 98.6,99.4 111.2,111.4 
				111.1,111.4 94.6,103.8 90.6,108.1 107.7,124.5 			"/>
			<path class="st1" d="M71.4,213.4c7.3-0.5,11.5-1.9,11.1-7.8l-0.5-7.6l-23.4,1.5l0.5,7.4C59.6,214.7,67.9,213.7,71.4,213.4z
				 M78.8,202.8l0.1,2.3c0.2,3.1-3.6,3.4-7.9,3.7c-5.9,0.4-8.1,0-8.3-2.8l-0.1-2.2L78.8,202.8z"/>
			<path class="st1" d="M142.1,258c4.2,0,7.4-0.9,9.5-2.6c2.2-1.7,3.3-4.2,3.3-7.5v-14.8c0-1.1,0.1-1.8,0.4-2.1
				c0.3-0.3,0.9-0.4,1.9-0.4h1.3v-4.3h-13.1v4.3h1.4c1,0,1.6,0.1,1.9,0.4c0.3,0.3,0.4,1,0.4,2.2v13.9c0,2.1-0.4,3.7-1.2,4.6
				c-0.8,0.9-2.2,1.4-4.1,1.4c-1.6,0-2.8-0.5-3.4-1.4c-0.7-1-1-2.6-1-5v-13.5c0-1.2,0.1-1.9,0.4-2.2c0.3-0.3,0.9-0.4,1.9-0.4h1.6
				v-4.3h-17v4.3h1.4c1,0,1.6,0.1,1.9,0.4c0.3,0.3,0.4,1,0.4,2.2v15.1c0,3.1,1,5.5,3.1,7.1C135.3,257.1,138.2,258,142.1,258z"/>
			<polygon class="st1" points="290.2,262.9 309.9,276 312.3,272.1 292.7,259.1 			"/>
			<path class="st1" d="M186.3,313.1l-7.3,23.5l4.4,0.3l1.5-5.2l6.1,0.4l0.9,5.3l4.7,0.3l-4.4-24.2L186.3,313.1z M186,328l2.6-10.2
				l0.1,0l1.5,10.4L186,328z"/>
			<path class="st1" d="M295.7,275.9L295.7,275.9c1.4-2.7,0.3-4.9-2-6.8c-3.1-2.6-6-2.4-7.9,0l-5.2,6.5l18.2,15l2.8-3.5l-7.5-6.2
				l0.7-0.9c2.2-2.7,3.9-1,6,0.8c1.2,1,2.3,2.1,3.8,2.5l2.8-3.5c-1-0.3-4.5-3.1-5.7-4C298.5,273.1,296.4,275.2,295.7,275.9z
				 M292.5,277l-1.2,1.6l-5.1-4.2l1.2-1.6c0.9-1.1,2.1-1.3,3.8,0.2C292.4,273.9,293.6,275.6,292.5,277z"/>
			<path class="st1" d="M263.9,290.2c-5.9,4.5-2.3,9.3,1.4,14.3c3.7,5,7.3,9.9,13.1,5.4c5.9-4.5,2.3-9.3-1.4-14.4
				C273.4,290.5,269.8,285.7,263.9,290.2z M276.4,307.1c-2,1.5-3.8-0.4-7.4-5.3c-3.6-4.9-4.9-7.2-2.9-8.7c2-1.5,3.8,0.4,7.4,5.3
				C277.1,303.2,278.4,305.6,276.4,307.1z"/>
			<path class="st1" d="M320.2,217.4c-7.2-1.6-11.6-1.4-12.8,4.4l-1.6,7.4l22.9,5l1.5-7.2C331.9,219.5,323.7,218.2,320.2,217.4z
				 M326.7,226.9l-0.5,2.1l-15.9-3.5l0.5-2.3c0.7-3.1,4.4-2.3,8.6-1.4C325.2,223.2,327.2,224.2,326.7,226.9z"/>
			<polygon class="st1" points="297.3,144.7 312,137.6 312,137.6 299.8,149.9 302.4,155.5 323.5,145.2 321.8,141.4 306.3,148.9 
				306.2,148.9 319.2,136 316.7,130.6 295.5,140.9 			"/>
			<path class="st1" d="M311.4,248.9c-5.5-2.9-10.8-5.6-14.1,1.1c-3.3,6.7,1.9,9.4,7.5,12.3c5.5,2.8,10.8,5.6,14.1-1.1
				C322.2,254.5,316.9,251.7,311.4,248.9z M315.7,259.5c-1.1,2.3-3.6,1.4-9-1.4c-5.4-2.8-7.5-4.3-6.4-6.5c1.1-2.3,3.6-1.4,9,1.4
				C314.7,255.8,316.9,257.3,315.7,259.5z"/>
			<polygon class="st1" points="329.8,201.9 329.3,209.4 322.4,208.8 322.9,202.1 319.3,201.8 318.8,208.6 313.1,208.1 313.6,200.8 
				310,200.5 309.1,212.3 332.5,214.2 333.4,202.1 			"/>
			<path class="st1" d="M325.5,171.7l-17.8,2.8l0.7,4.5l18.1-2.8c1-0.2,2.1,0.4,2.2,1.4c0.3,2.3-2.5,2.4-4.3,2.7l0.7,4.6
				c5.3-0.8,8-1.5,7.1-7.8C331.8,173.8,329.6,171.1,325.5,171.7z"/>
			<path class="st1" d="M306.1,167.8l24.2-1l-1.2-4.3l-5.3,0.3l-1.7-5.9l4.6-2.6l-1.3-4.6L304.4,162L306.1,167.8z M318.8,158.8
				l1.2,4.1l-10.3,0.9l0,0L318.8,158.8z"/>
			<path class="st1" d="M250.3,299.6l-6.6,3.6l11.1,21l6.4-3.5c6.7-3.7,2.4-10.8,0.7-14C258.4,300.1,255.4,296.8,250.3,299.6z
				 M259,317.8l-1.9,1l-7.7-14.6l2-1.1c2.7-1.5,4.5,1.9,6.6,5.8C260.8,314.2,261.4,316.5,259,317.8z"/>
			<polygon class="st1" points="286,126.8 304.3,111.8 301.5,108.3 283.2,123.3 			"/>
			<path class="st1" d="M206.4,313l-7.4,0.7l2,23.8l7.2-0.6c7.6-0.7,6.4-9,6.1-12.6C213.7,316.8,212.3,312.5,206.4,313z
				 M207.3,333.2l-2.1,0.2l-1.4-16.5l2.3-0.2c3.1-0.3,3.4,3.6,3.8,8C210.4,330.7,210,333,207.3,333.2z"/>
			<path class="st1" d="M222.6,310c-7.1,1.7-5.8,7.6-4.3,13.7c1.4,6.1,2.8,12,10,10.2c7.2-1.7,5.8-7.7,4.3-13.7
				C231.2,314.1,229.8,308.2,222.6,310z M227.5,330.5c-2.4,0.6-3.4-1.9-4.8-7.8c-1.4-5.9-1.7-8.6,0.7-9.2c2.4-0.6,3.4,1.9,4.8,7.8
				C229.6,327.2,229.9,329.9,227.5,330.5z"/>
			<path class="st1" d="M235,248.4h-2.9c0,0.1,0,0.3,0,0.5c0,0.2,0,0.4,0,0.5c0,1.1-0.1,1.9-0.3,2.4c-0.2,0.5-0.5,0.8-0.8,0.8
				c-0.4,0-0.7-0.2-0.8-0.6c-0.2-0.4-0.2-1.2-0.2-2.3c0-3.7-0.3-6-1-7c-0.7-1-2-1.7-3.9-1.9c1.9-0.4,3.4-1.2,4.4-2.4
				c1-1.2,1.6-2.6,1.6-4.4c0-2.6-0.8-4.5-2.5-5.8c-1.7-1.3-4.2-1.9-7.7-1.9h-19.4v4.4h1.4c1,0,1.6,0.1,1.9,0.4
				c0.3,0.3,0.4,1,0.4,2.2V250c0,1.2-0.1,1.9-0.4,2.2c-0.3,0.3-0.9,0.4-1.9,0.4h-1.4v4.4h16.9v-4.4h-1.6c-1,0-1.6-0.1-1.9-0.4
				c-0.3-0.3-0.4-1-0.4-2.2v-6.9h2.5c1.6,0,2.6,0.3,3.1,0.8c0.5,0.6,0.8,1.9,0.8,3.9v2.6c0,2.5,0.6,4.4,1.8,5.6
				c1.2,1.2,3,1.8,5.6,1.8c2.4,0,4.1-0.6,5.2-1.9c1.1-1.3,1.6-3.4,1.6-6.3c0-0.1,0-0.3,0-0.6C235,248.7,235,248.5,235,248.4z
				 M220.5,238.1c-0.7,0.6-1.9,0.9-3.6,0.9h-2.5v-8.1h2.8c1.6,0,2.8,0.3,3.4,0.9c0.7,0.6,1,1.7,1,3.3
				C221.6,236.5,221.2,237.5,220.5,238.1z"/>
			<polygon class="st1" points="308.1,123.6 302.4,127.5 298.8,121.9 295.8,123.9 299.4,129.5 294.6,132.8 290.6,126.7 287.6,128.7 
				294.1,138.6 313.6,125.4 307,115.3 304,117.3 			"/>
			<path class="st1" d="M256.3,257.3c1.5-0.5,2.7-1.2,3.7-2.2c0.9-0.9,1.5-1.9,1.8-3.1c0.4-1.2,0.6-2.9,0.6-5.2v-13.5V233
				c0-1.1,0.1-1.8,0.4-2c0.3-0.2,0.9-0.4,1.8-0.4h1.3v-4.3h-16.8v4.3h1.6c1,0,1.6,0.1,1.9,0.4c0.3,0.3,0.4,1,0.4,2.2v13.1
				c0,2.8-0.3,4.6-0.9,5.5c-0.6,0.9-1.7,1.4-3.2,1.4c-0.8,0-1.4-0.2-2-0.6c-0.6-0.4-1-0.9-1.3-1.7c0.2,0,0.4,0.1,0.6,0.1
				c0.2,0,0.4,0,0.6,0c1.1,0,1.9-0.4,2.6-1.1c0.7-0.7,1-1.7,1-3c0-1.3-0.4-2.3-1.1-3.1c-0.7-0.8-1.7-1.2-3-1.2c-1.7,0-3,0.6-4.1,1.8
				c-1,1.2-1.6,2.8-1.6,4.7c0,2.6,1,4.6,2.9,6.3c1.9,1.6,4.5,2.4,7.6,2.4C253.1,258,254.8,257.7,256.3,257.3z"/>
		</g>
	</g>
</g>
</svg>
